<svg id="visual" viewBox="0 0 2000 600" width="2000" height="600" xmlns="http://www.w3.org/2000/svg" xmlns:xlink="http://www.w3.org/1999/xlink" version="1.1"><rect x="0" y="0" width="2000" height="600" fill="#ffffff"></rect><path d="M0 455L33.3 456.5C66.7 458 133.3 461 200 464.8C266.7 468.7 333.3 473.3 400 475C466.7 476.7 533.3 475.3 600 470.5C666.7 465.7 733.3 457.3 800 456.3C866.7 455.3 933.3 461.7 1000 466.3C1066.7 471 1133.3 474 1200 471.5C1266.7 469 1333.3 461 1400 457.7C1466.7 454.3 1533.3 455.7 1600 459.5C1666.7 463.3 1733.3 469.7 1800 469.2C1866.7 468.7 1933.3 461.3 1966.7 457.7L2000 454L2000 601L1966.7 601C1933.3 601 1866.7 601 1800 601C1733.3 601 1666.7 601 1600 601C1533.3 601 1466.7 601 1400 601C1333.3 601 1266.7 601 1200 601C1133.3 601 1066.7 601 1000 601C933.3 601 866.7 601 800 601C733.3 601 666.7 601 600 601C533.3 601 466.7 601 400 601C333.3 601 266.7 601 200 601C133.3 601 66.7 601 33.3 601L0 601Z" fill="#33c3f0"></path><path d="M0 474L33.3 475.7C66.7 477.3 133.3 480.7 200 482C266.7 483.3 333.3 482.7 400 480.2C466.7 477.7 533.3 473.3 600 474C666.7 474.7 733.3 480.3 800 483.5C866.7 486.7 933.3 487.3 1000 488.8C1066.7 490.3 1133.3 492.7 1200 492.8C1266.7 493 1333.3 491 1400 492.3C1466.7 493.7 1533.3 498.3 1600 496.7C1666.7 495 1733.3 487 1800 485.7C1866.7 484.3 1933.3 489.7 1966.7 492.3L2000 495L2000 601L1966.7 601C1933.3 601 1866.7 601 1800 601C1733.3 601 1666.7 601 1600 601C1533.3 601 1466.7 601 1400 601C1333.3 601 1266.7 601 1200 601C1133.3 601 1066.7 601 1000 601C933.3 601 866.7 601 800 601C733.3 601 666.7 601 600 601C533.3 601 466.7 601 400 601C333.3 601 266.7 601 200 601C133.3 601 66.7 601 33.3 601L0 601Z" fill="#51a7f4"></path><path d="M0 514L33.3 512.3C66.7 510.7 133.3 507.3 200 508.5C266.7 509.7 333.3 515.3 400 518.7C466.7 522 533.3 523 600 523.5C666.7 524 733.3 524 800 520.5C866.7 517 933.3 510 1000 507.3C1066.7 504.7 1133.3 506.3 1200 508.3C1266.7 510.3 1333.3 512.7 1400 515.8C1466.7 519 1533.3 523 1600 525.7C1666.7 528.3 1733.3 529.7 1800 527.2C1866.7 524.7 1933.3 518.3 1966.7 515.2L2000 512L2000 601L1966.7 601C1933.3 601 1866.7 601 1800 601C1733.3 601 1666.7 601 1600 601C1533.3 601 1466.7 601 1400 601C1333.3 601 1266.7 601 1200 601C1133.3 601 1066.7 601 1000 601C933.3 601 866.7 601 800 601C733.3 601 666.7 601 600 601C533.3 601 466.7 601 400 601C333.3 601 266.7 601 200 601C133.3 601 66.7 601 33.3 601L0 601Z" fill="#8d83df"></path><path d="M0 532L33.3 532.8C66.7 533.7 133.3 535.3 200 538.8C266.7 542.3 333.3 547.7 400 546.2C466.7 544.7 533.3 536.3 600 532C666.7 527.7 733.3 527.3 800 530.3C866.7 533.3 933.3 539.7 1000 539.7C1066.7 539.7 1133.3 533.3 1200 535.3C1266.7 537.3 1333.3 547.7 1400 547.5C1466.7 547.3 1533.3 536.7 1600 534.3C1666.7 532 1733.3 538 1800 541.5C1866.7 545 1933.3 546 1966.7 546.5L2000 547L2000 601L1966.7 601C1933.3 601 1866.7 601 1800 601C1733.3 601 1666.7 601 1600 601C1533.3 601 1466.7 601 1400 601C1333.3 601 1266.7 601 1200 601C1133.3 601 1066.7 601 1000 601C933.3 601 866.7 601 800 601C733.3 601 666.7 601 600 601C533.3 601 466.7 601 400 601C333.3 601 266.7 601 200 601C133.3 601 66.7 601 33.3 601L0 601Z" fill="#b856ae"></path><path d="M0 575L33.3 571.7C66.7 568.3 133.3 561.7 200 562.8C266.7 564 333.3 573 400 574.5C466.7 576 533.3 570 600 566.3C666.7 562.7 733.3 561.3 800 561.8C866.7 562.3 933.3 564.7 1000 564.2C1066.7 563.7 1133.3 560.3 1200 561.7C1266.7 563 1333.3 569 1400 571.2C1466.7 573.3 1533.3 571.7 1600 570.3C1666.7 569 1733.3 568 1800 568.7C1866.7 569.3 1933.3 571.7 1966.7 572.8L2000 574L2000 601L1966.7 601C1933.3 601 1866.7 601 1800 601C1733.3 601 1666.7 601 1600 601C1533.3 601 1466.7 601 1400 601C1333.3 601 1266.7 601 1200 601C1133.3 601 1066.7 601 1000 601C933.3 601 866.7 601 800 601C733.3 601 666.7 601 600 601C533.3 601 466.7 601 400 601C333.3 601 266.7 601 200 601C133.3 601 66.7 601 33.3 601L0 601Z" fill="#c62368"></path></svg>